<?xml version="1.0" encoding="UTF-8"?>
<svg id="Camada_2" data-name="Camada 2" xmlns="http://www.w3.org/2000/svg" viewBox="0 0 63.59 59.22">
  <defs>
    <style>
      .cls-1 {
        fill: #181b1f;
      }

      .cls-2 {
        fill: #ab9068;
      }
    </style>
  </defs>
  <g id="Camada_1-2" data-name="Camada 1">
    <g>
      <g>
        <polygon class="cls-2" points="16.6 3.47 16.6 28.56 23.53 28.56 23.53 28.23 16.98 28.23 16.98 3.8 45.6 3.8 45.6 28.23 39.05 28.23 39.05 28.56 45.99 28.56 45.99 3.47 16.6 3.47"/>
        <polygon class="cls-2" points="34.76 2.97 37.73 0 37.73 32.03 34.76 32.03 34.76 2.97"/>
        <polygon class="cls-2" points="29.81 7.93 32.78 4.95 32.78 32.03 29.81 32.03 29.81 7.93"/>
        <polygon class="cls-2" points="24.85 12.88 27.82 9.91 27.82 32.03 24.85 32.03 24.85 12.88"/>
        <path class="cls-2" d="M8.66,48.79H2.12l-.79,1.61H0l4.8-9.74h1.2l4.79,9.74h-1.34l-.79-1.61ZM8.18,47.83l-2.79-5.68-2.79,5.68h5.57Z"/>
        <polygon class="cls-2" points="19.47 49.3 19.47 50.41 11.76 50.41 11.76 40.78 13.04 40.78 13.04 49.3 19.47 49.3"/>
        <polygon class="cls-2" points="28.42 49.3 28.42 50.41 20.71 50.41 20.71 40.78 21.99 40.78 21.99 49.3 28.42 49.3"/>
        <path class="cls-2" d="M38.91,45.63c0,3.63-2.15,4.77-4.81,4.77h-4.43v-9.63h4.43c2.66-.03,4.81,1.23,4.81,4.86M37.64,45.62c0-2.7-1.46-3.61-3.53-3.61h-3.16v7.16h3.16c2.07,0,3.53-.83,3.53-3.55"/>
        <path class="cls-2" d="M48.4,48.79h-6.54l-.79,1.61h-1.34l4.8-9.74h1.2l4.79,9.74h-1.34l-.79-1.61ZM47.92,47.83l-2.79-5.68-2.79,5.68h5.57Z"/>
        <polygon class="cls-2" points="60.85 50.41 56.78 46.24 52.72 50.41 50.98 50.41 55.91 45.36 51.44 40.78 53.22 40.78 56.79 44.46 60.35 40.78 62.11 40.78 57.64 45.35 62.58 50.41 60.85 50.41"/>
      </g>
      <g>
        <g>
          <path class="cls-1" d="M61.68,58.43h-.31c.09-.25.99-2.87.99-2.87l.09-.24c.04-.12.16-.2.29-.2s.24.08.29.2c.18.5.36,1,.54,1.51.01.04.05.17-.01.31-.04.08-.1.13-.12.15-.1.08-.21.1-.25.1-.14.02-.25-.03-.27-.04-.03-.01-.11-.05-.18-.13-.03-.04-.05-.07-.06-.1l-.12-.35h.31c.03.09.06.17.08.23,0,.02.01.04.03.06.04.04.11.06.18.04.05-.02.09-.05.11-.1.01-.05,0-.09,0-.1-.04-.1-.12-.35-.23-.68l-.28-.85s0-.01-.01-.01-.01,0-.01.01l-1.04,3.06h0Z"/>
          <path class="cls-1" d="M61.32,57.08c-.1-.04-.16-.09-.21-.17-.04-.08-.07-.18-.06-.3l-.28.06c0,.12.01.22.05.31s.09.16.16.22c.07.06.16.11.28.14.06.02.13.03.2.04l.09-.26c-.08,0-.16-.02-.23-.05"/>
          <path class="cls-1" d="M61.71,56.13c-.1-.02-.2-.05-.3-.08-.09-.03-.17-.07-.23-.12-.06-.05-.09-.12-.09-.2,0-.07.02-.14.06-.19.04-.05.1-.09.17-.12.07-.03.16-.04.25-.04.08,0,.16,0,.23.03.07.02.12.05.17.09.04.04.07.08.09.13l.11-.32c-.05-.04-.11-.08-.18-.1-.12-.05-.26-.08-.42-.08s-.3.02-.41.08c-.12.05-.21.12-.27.22-.07.09-.1.21-.1.34,0,.11.02.2.07.28.05.07.11.13.19.18.08.04.17.08.27.11.1.03.2.05.29.08.06.01.11.03.16.04l.09-.26c-.06-.02-.12-.03-.18-.05h0Z"/>
          <path class="cls-1" d="M41.43,56.2h.89v1.16h-.32l-.03-.24c-.07.1-.17.17-.28.21-.11.04-.24.06-.37.06-.21,0-.4-.04-.56-.13-.16-.09-.28-.21-.36-.38-.09-.17-.13-.36-.13-.59s.05-.44.14-.62c.1-.18.24-.32.42-.42.18-.1.39-.15.63-.15.2,0,.37.04.51.11.14.07.26.18.35.33l-.31.23c-.06-.1-.13-.18-.23-.22-.1-.05-.2-.07-.32-.07-.16,0-.29.03-.41.1-.11.07-.2.16-.26.28-.06.12-.09.26-.09.42,0,.23.06.42.18.55.12.13.28.19.49.19.1,0,.19-.02.28-.05.09-.04.16-.09.21-.16.06-.07.08-.16.08-.26v-.02h-.49v-.33Z"/>
          <path class="cls-1" d="M44.81,56.23s-.1.06-.16.08c-.06.02-.14.03-.22.03h-.69v-.81h.69c.17,0,.3.03.38.1.09.07.13.16.13.29,0,.06-.01.12-.03.17-.02.05-.05.09-.1.13M45.14,56.53c.06-.05.11-.1.15-.17.04-.06.07-.13.09-.2.02-.07.03-.15.03-.24,0-.12-.02-.23-.06-.33-.04-.1-.1-.18-.18-.25s-.19-.12-.31-.15c-.12-.04-.27-.05-.44-.05h-1.13v2.22h.45v-.63h.68s.01,0,.01,0l.42.63h.55l-.48-.71c.08-.03.16-.07.22-.12"/>
          <path class="cls-1" d="M46.35,55.14h.45v1.22c0,.1.01.19.04.27.03.08.07.14.12.2.05.05.12.1.2.12.08.03.17.04.28.04s.2-.01.28-.04c.08-.03.15-.07.2-.12.05-.05.1-.12.12-.2.03-.08.04-.17.04-.27v-1.22h.45v1.28c0,.15-.02.28-.07.4-.05.12-.12.22-.21.31-.09.09-.21.15-.34.2-.14.05-.29.07-.46.07s-.33-.02-.47-.07c-.14-.05-.25-.11-.34-.2-.09-.09-.17-.19-.21-.31-.05-.12-.07-.25-.07-.4v-1.28Z"/>
          <path class="cls-1" d="M51.18,56.13c-.02.05-.05.1-.1.14-.04.04-.1.07-.16.09-.06.02-.14.03-.22.03h-.73v-.85h.73c.17,0,.3.04.38.11.09.07.13.17.13.31,0,.07-.01.12-.03.18M51.62,55.61c-.04-.1-.1-.18-.18-.25-.08-.07-.19-.12-.31-.16-.12-.04-.27-.06-.44-.06h-1.17v2.22h.45v-.59h.72c.17,0,.32-.02.44-.06.12-.04.23-.1.31-.17.08-.07.14-.16.18-.26.04-.1.06-.21.06-.33,0-.13-.02-.24-.06-.34"/>
          <path class="cls-1" d="M54.65,56.56c-.04.09-.1.17-.17.24-.07.06-.16.11-.26.15-.1.04-.21.05-.32.05s-.23-.02-.33-.05c-.1-.03-.19-.08-.26-.15-.07-.07-.13-.14-.17-.24-.04-.09-.06-.19-.06-.31s.02-.22.06-.31c.04-.09.1-.17.17-.23.07-.06.16-.11.26-.14.1-.03.21-.05.33-.05s.23.02.32.05c.1.03.19.08.26.14.07.06.13.14.17.23.04.09.06.19.06.31s-.02.22-.06.31M55.07,55.79c-.06-.14-.15-.26-.26-.36-.11-.1-.24-.18-.4-.23-.16-.05-.33-.08-.52-.08s-.36.03-.52.08c-.16.05-.29.13-.4.23-.11.1-.2.22-.26.36-.06.14-.09.29-.09.46s.03.32.09.46c.06.14.15.26.26.36.11.1.25.18.4.24.16.06.33.08.52.08s.36-.03.52-.08c.16-.06.29-.14.4-.24.11-.1.2-.22.26-.36.06-.14.09-.3.09-.46s-.03-.32-.09-.46"/>
          <path class="cls-1" d="M56.1,57.37h.61c0,.72.54,1.27,1.27,1.27.72,0,1.25-.57,1.25-1.29,0-.73-.58-1.26-1.31-1.26h-.78l1.33-1.83h-1.89v-.58h2.93l-1.38,1.86v.03h.08c.91.07,1.61.85,1.62,1.77,0,1.04-.83,1.88-1.86,1.88s-1.86-.84-1.86-1.85"/>
        </g>
        <path class="cls-1" d="M37.26,55.5h.23l.38,1.33h.1l.39-1.33h.23l-.64,2.21h-.23l.2-.68h-.23l-.43-1.53ZM36.33,56.85c.2,0,.33-.04.39-.13.07-.09.1-.25.1-.46s-.03-.37-.08-.45c-.05-.09-.14-.13-.27-.13-.12,0-.24.02-.36.07l-.06.02v1.08c.13.01.23.01.28.01M36.5,55.46c.21,0,.35.06.43.18.08.12.13.32.13.62s-.05.5-.16.62c-.1.12-.29.18-.57.18-.09,0-.23,0-.43-.02h-.09v-2.2h.23v.74c.15-.07.31-.11.45-.11"/>
      </g>
    </g>
  </g>
</svg>